<mxfile host="app.diagrams.net" modified="2024-04-18T22:11:41.605Z" agent="Mozilla/5.0 (Windows NT 10.0; Win64; x64) AppleWebKit/537.36 (KHTML, like Gecko) Chrome/123.0.0.0 Safari/537.36" etag="urmPPubQFFmUw36GIiip" version="24.2.5" type="device">
  <diagram name="Страница 1" id="MFPvtvDJR9Ac2Hvy_q2o">
    <mxGraphModel dx="989" dy="514" grid="1" gridSize="10" guides="1" tooltips="1" connect="1" arrows="1" fold="1" page="1" pageScale="1" pageWidth="827" pageHeight="1169" math="0" shadow="0">
      <root>
        <mxCell id="0" />
        <mxCell id="1" parent="0" />
        <mxCell id="ttUZG3cuN7-WcpqN5L6e-1" value="&lt;font style=&quot;font-size: 14px;&quot;&gt;регистрация&lt;br&gt;&lt;font color=&quot;#2af4f4&quot; style=&quot;font-size: 14px;&quot;&gt;&lt;b style=&quot;&quot;&gt;User&lt;/b&gt;&lt;/font&gt;&lt;/font&gt;" style="rounded=0;whiteSpace=wrap;html=1;fillColor=#dae8fc;strokeColor=#6c8ebf;" parent="1" vertex="1">
          <mxGeometry x="400" y="700" width="120" height="60" as="geometry" />
        </mxCell>
        <mxCell id="ttUZG3cuN7-WcpqN5L6e-3" value="БД&lt;br&gt;users&lt;br&gt;" style="shape=cylinder3;whiteSpace=wrap;html=1;boundedLbl=1;backgroundOutline=1;size=6.3333333333332575;" parent="1" vertex="1">
          <mxGeometry x="730" y="390" width="60" height="80" as="geometry" />
        </mxCell>
        <mxCell id="ttUZG3cuN7-WcpqN5L6e-6" value="" style="endArrow=classic;html=1;rounded=0;entryX=0.5;entryY=0;entryDx=0;entryDy=0;" parent="1" target="ttUZG3cuN7-WcpqN5L6e-7" edge="1">
          <mxGeometry width="50" height="50" relative="1" as="geometry">
            <mxPoint x="759.83" y="470" as="sourcePoint" />
            <mxPoint x="759.83" y="510" as="targetPoint" />
          </mxGeometry>
        </mxCell>
        <mxCell id="ttUZG3cuN7-WcpqN5L6e-7" value="&amp;nbsp; &amp;nbsp; таблица&lt;br&gt;Users" style="shape=internalStorage;whiteSpace=wrap;html=1;backgroundOutline=1;" parent="1" vertex="1">
          <mxGeometry x="720" y="520" width="80" height="80" as="geometry" />
        </mxCell>
        <mxCell id="ttUZG3cuN7-WcpqN5L6e-8" value="БД&lt;br&gt;&lt;font style=&quot;font-size: 11px;&quot;&gt;expressions&lt;/font&gt;" style="shape=cylinder3;whiteSpace=wrap;html=1;boundedLbl=1;backgroundOutline=1;size=6.3333333333332575;" parent="1" vertex="1">
          <mxGeometry x="310" y="405" width="60" height="80" as="geometry" />
        </mxCell>
        <mxCell id="ttUZG3cuN7-WcpqN5L6e-9" value="" style="endArrow=classic;html=1;rounded=0;entryX=0.5;entryY=0;entryDx=0;entryDy=0;" parent="1" target="ttUZG3cuN7-WcpqN5L6e-10" edge="1">
          <mxGeometry width="50" height="50" relative="1" as="geometry">
            <mxPoint x="430" y="495" as="sourcePoint" />
            <mxPoint x="429.83000000000004" y="525" as="targetPoint" />
          </mxGeometry>
        </mxCell>
        <mxCell id="ttUZG3cuN7-WcpqN5L6e-10" value="таблица&lt;br&gt;User99&lt;br&gt;expressions" style="shape=internalStorage;whiteSpace=wrap;html=1;backgroundOutline=1;dx=0;dy=15;" parent="1" vertex="1">
          <mxGeometry x="390" y="520" width="80" height="80" as="geometry" />
        </mxCell>
        <mxCell id="ttUZG3cuN7-WcpqN5L6e-11" value="" style="endArrow=none;html=1;rounded=0;" parent="1" edge="1">
          <mxGeometry width="50" height="50" relative="1" as="geometry">
            <mxPoint x="250" y="495" as="sourcePoint" />
            <mxPoint x="430" y="495" as="targetPoint" />
          </mxGeometry>
        </mxCell>
        <mxCell id="ttUZG3cuN7-WcpqN5L6e-12" value="" style="endArrow=classic;html=1;rounded=0;entryX=0.5;entryY=0;entryDx=0;entryDy=0;exitX=0.5;exitY=1;exitDx=0;exitDy=0;exitPerimeter=0;" parent="1" source="ttUZG3cuN7-WcpqN5L6e-8" edge="1">
          <mxGeometry width="50" height="50" relative="1" as="geometry">
            <mxPoint x="340" y="495" as="sourcePoint" />
            <mxPoint x="340" y="520" as="targetPoint" />
          </mxGeometry>
        </mxCell>
        <mxCell id="ttUZG3cuN7-WcpqN5L6e-13" value="" style="endArrow=classic;html=1;rounded=0;entryX=0.5;entryY=0;entryDx=0;entryDy=0;" parent="1" edge="1">
          <mxGeometry width="50" height="50" relative="1" as="geometry">
            <mxPoint x="250" y="495" as="sourcePoint" />
            <mxPoint x="250" y="520" as="targetPoint" />
          </mxGeometry>
        </mxCell>
        <mxCell id="ttUZG3cuN7-WcpqN5L6e-15" value="таблица&lt;br&gt;User1&lt;br&gt;expressions" style="shape=internalStorage;whiteSpace=wrap;html=1;backgroundOutline=1;dx=0;dy=15;" parent="1" vertex="1">
          <mxGeometry x="210" y="520" width="80" height="80" as="geometry" />
        </mxCell>
        <mxCell id="ttUZG3cuN7-WcpqN5L6e-16" value="таблица&lt;br&gt;User...&lt;br&gt;expressions" style="shape=internalStorage;whiteSpace=wrap;html=1;backgroundOutline=1;dx=0;dy=15;" parent="1" vertex="1">
          <mxGeometry x="300" y="520" width="80" height="80" as="geometry" />
        </mxCell>
        <mxCell id="ttUZG3cuN7-WcpqN5L6e-18" value="" style="endArrow=classic;html=1;rounded=0;exitX=0.75;exitY=0;exitDx=0;exitDy=0;entryX=0.5;entryY=1;entryDx=0;entryDy=0;fillColor=#dae8fc;strokeColor=#6c8ebf;" parent="1" source="ttUZG3cuN7-WcpqN5L6e-1" target="ttUZG3cuN7-WcpqN5L6e-7" edge="1">
          <mxGeometry width="50" height="50" relative="1" as="geometry">
            <mxPoint x="520" y="660" as="sourcePoint" />
            <mxPoint x="760" y="650" as="targetPoint" />
            <Array as="points">
              <mxPoint x="490" y="650" />
              <mxPoint x="760" y="650" />
            </Array>
          </mxGeometry>
        </mxCell>
        <mxCell id="ttUZG3cuN7-WcpqN5L6e-21" value="&lt;font style=&quot;font-size: 13px;&quot;&gt;новый &lt;font color=&quot;#1fd6d6&quot; style=&quot;font-size: 13px;&quot;&gt;&lt;b style=&quot;&quot;&gt;User&lt;/b&gt;&lt;/font&gt;&lt;/font&gt;" style="edgeLabel;html=1;align=center;verticalAlign=middle;resizable=0;points=[];" parent="ttUZG3cuN7-WcpqN5L6e-18" vertex="1" connectable="0">
          <mxGeometry x="0.1222" relative="1" as="geometry">
            <mxPoint y="-10" as="offset" />
          </mxGeometry>
        </mxCell>
        <mxCell id="ttUZG3cuN7-WcpqN5L6e-19" value="" style="endArrow=classic;html=1;rounded=0;exitX=0.25;exitY=0;exitDx=0;exitDy=0;entryX=1;entryY=0.5;entryDx=0;entryDy=0;fillColor=#dae8fc;strokeColor=#6c8ebf;entryPerimeter=0;" parent="1" source="ttUZG3cuN7-WcpqN5L6e-1" target="ttUZG3cuN7-WcpqN5L6e-8" edge="1">
          <mxGeometry width="50" height="50" relative="1" as="geometry">
            <mxPoint x="520" y="660" as="sourcePoint" />
            <mxPoint x="570" y="610" as="targetPoint" />
            <Array as="points">
              <mxPoint x="430" y="630" />
              <mxPoint x="530" y="630" />
              <mxPoint x="530" y="445" />
            </Array>
          </mxGeometry>
        </mxCell>
        <mxCell id="ttUZG3cuN7-WcpqN5L6e-20" value="&lt;font style=&quot;font-size: 11px;&quot;&gt;новая таблица UserExpressions&lt;br&gt;&amp;nbsp;для &lt;font color=&quot;#36d9f2&quot; style=&quot;font-size: 11px;&quot;&gt;&lt;b style=&quot;&quot;&gt;User&lt;/b&gt;&lt;/font&gt;&lt;/font&gt;" style="edgeLabel;html=1;align=center;verticalAlign=middle;resizable=0;points=[];" parent="ttUZG3cuN7-WcpqN5L6e-19" vertex="1" connectable="0">
          <mxGeometry x="-0.2968" relative="1" as="geometry">
            <mxPoint x="-60" y="-189" as="offset" />
          </mxGeometry>
        </mxCell>
        <mxCell id="LWkGTFHZ8RLKN_xRy1ci-1" value="&lt;font style=&quot;font-size: 14px;&quot;&gt;вход&lt;br&gt;&lt;font color=&quot;#009900&quot; style=&quot;font-size: 14px;&quot;&gt;&lt;b style=&quot;&quot;&gt;User&lt;/b&gt;&lt;/font&gt;&lt;/font&gt;" style="rounded=0;whiteSpace=wrap;html=1;fillColor=#d5e8d4;strokeColor=#82b366;" vertex="1" parent="1">
          <mxGeometry x="400" y="270" width="120" height="60" as="geometry" />
        </mxCell>
        <mxCell id="LWkGTFHZ8RLKN_xRy1ci-2" value="проверка пароля" style="endArrow=classic;html=1;rounded=0;entryX=1;entryY=0.5;entryDx=0;entryDy=0;exitX=0;exitY=0.5;exitDx=0;exitDy=0;fillColor=#d5e8d4;strokeColor=#529929;startArrow=classic;startFill=1;" edge="1" parent="1" source="ttUZG3cuN7-WcpqN5L6e-7" target="LWkGTFHZ8RLKN_xRy1ci-1">
          <mxGeometry x="0.6522" y="10" width="50" height="50" relative="1" as="geometry">
            <mxPoint x="500" y="460" as="sourcePoint" />
            <mxPoint x="550" y="410" as="targetPoint" />
            <Array as="points">
              <mxPoint x="670" y="560" />
              <mxPoint x="670" y="300" />
            </Array>
            <mxPoint as="offset" />
          </mxGeometry>
        </mxCell>
        <mxCell id="LWkGTFHZ8RLKN_xRy1ci-3" value="обновление времени последнего входа" style="text;html=1;align=center;verticalAlign=middle;whiteSpace=wrap;rounded=0;" vertex="1" parent="1">
          <mxGeometry x="670" y="330" width="120" height="30" as="geometry" />
        </mxCell>
        <mxCell id="LWkGTFHZ8RLKN_xRy1ci-4" value="выражения пользователя" style="endArrow=classic;html=1;rounded=0;entryX=0;entryY=0.5;entryDx=0;entryDy=0;exitX=0;exitY=0.5;exitDx=0;exitDy=0;exitPerimeter=0;fillColor=#d5e8d4;strokeColor=#4ca21a;" edge="1" parent="1" source="ttUZG3cuN7-WcpqN5L6e-8" target="LWkGTFHZ8RLKN_xRy1ci-1">
          <mxGeometry x="0.52" y="-10" width="50" height="50" relative="1" as="geometry">
            <mxPoint x="500" y="460" as="sourcePoint" />
            <mxPoint x="550" y="410" as="targetPoint" />
            <Array as="points">
              <mxPoint x="240" y="445" />
              <mxPoint x="240" y="300" />
            </Array>
            <mxPoint as="offset" />
          </mxGeometry>
        </mxCell>
      </root>
    </mxGraphModel>
  </diagram>
</mxfile>
